<svg width="512" height="512" version="1.1" viewBox="0 0 135.47 135.47" xmlns="http://www.w3.org/2000/svg"><defs><linearGradient id="a" x1="348.87" x2="348.87" y1="911.71" y2="487.9" gradientUnits="userSpaceOnUse"><stop stop-color="#a826a4" offset="0"/><stop stop-color="#cc267c" offset=".085641"/><stop stop-color="#d11d4d" offset=".3973"/><stop stop-color="#ee545e" offset=".59313"/><stop stop-color="#ed844a" offset=".76196"/><stop stop-color="#fbd25c" offset="1"/></linearGradient></defs><g transform="matrix(1.2081 0 0 1.2081 -43.782 -155.95)"><path transform="scale(.26458)" d="m348.87 487.9a211.9 211.9 0 0 0-211.9 211.9 211.9 211.9 0 0 0 3.0898 36.062h417.62a211.9 211.9 0 0 0 3.0918-36.062 211.9 211.9 0 0 0-211.9-211.9zm-207.38 255.43a211.9 211.9 0 0 0 15.252 45.848h384.26a211.9 211.9 0 0 0 15.252-45.848zm18.902 53.309a211.9 211.9 0 0 0 31.83 45.861h313.3a211.9 211.9 0 0 0 31.828-45.861zm338 53.322h-299.03a211.9 211.9 0 0 0 149.52 61.746 211.9 211.9 0 0 0 149.52-61.746z" fill="url(#a)" fill-rule="evenodd" style="mix-blend-mode:normal"/></g></svg>
